<svg width="337" height="760" viewBox="0 0 337 760" fill="none" xmlns="http://www.w3.org/2000/svg">
    <path fill-rule="evenodd" clip-rule="evenodd" d="M49 48V46H67V48H49ZM49 53H67V51H49V53ZM49 58H67V56H49V58Z" fill="#1F1F1F" fill-opacity="0.3"/>
    <path d="M120 51H107.83L113.42 45.41L112 44L104 52L112 60L113.41 58.59L107.83 53H120V51Z" fill="#1F1F1F" fill-opacity="0.3"/>
    <path d="M168 44L166.59 45.41L172.17 51H160V53H172.17L166.59 58.59L168 60L176 52L168 44Z" fill="#1F1F1F" fill-opacity="0.3"/>
    <path d="M220 56.17L215.83 52L214.41 53.41L220 59L232 47L230.59 45.59L220 56.17Z" fill="#1F1F1F" fill-opacity="0.3"/>
    <path d="M285 46.41L283.59 45L278 50.59L272.41 45L271 46.41L276.59 52L271 57.59L272.41 59L278 53.41L283.59 59L285 57.59L279.41 52L285 46.41Z" fill="#1F1F1F" fill-opacity="0.3"/>
    <path fill-rule="evenodd" clip-rule="evenodd" d="M58 113C61.3137 113 64 110.314 64 107C64 103.686 61.3137 101 58 101C54.6863 101 52 103.686 52 107C52 110.314 54.6863 113 58 113Z" fill="#1F1F1F" fill-opacity="0.3"/>
    <path fill-rule="evenodd" clip-rule="evenodd" d="M112 101L119 113H105L112 101Z" fill="#1F1F1F" fill-opacity="0.3"/>
    <rect x="162" y="101" width="12" height="12" fill="#1F1F1F" fill-opacity="0.3"/>
    <path d="M223 100L229.657 104.837L227.114 112.663H218.886L216.343 104.837L223 100Z" fill="#1F1F1F" fill-opacity="0.3"/>
    <path d="M278 100L284.062 103.5V110.5L278 114L271.938 110.5V103.5L278 100Z" fill="#1F1F1F" fill-opacity="0.3"/>
    <path d="M63 162C63 164.761 60.7614 167 58 167C55.2386 167 53 164.761 53 162C53 159.239 55.2386 157 58 157C60.7614 157 63 159.239 63 162Z" stroke="#1F1F1F" stroke-opacity="0.3" stroke-width="2"/>
    <path d="M106.741 167L112 157.985L117.259 167H106.741Z" stroke="#1F1F1F" stroke-opacity="0.3" stroke-width="2"/>
    <rect x="163" y="157" width="10" height="10" stroke="#1F1F1F" stroke-opacity="0.3" stroke-width="2"/>
    <path d="M217.518 160.219L223 156.236L228.482 160.219L226.388 166.663H219.612L217.518 160.219Z" stroke="#1F1F1F" stroke-opacity="0.3" stroke-width="2"/>
    <path d="M272.938 159.077L278 156.155L283.062 159.077V164.923L278 167.845L272.938 164.923V159.077Z" stroke="#1F1F1F" stroke-opacity="0.3" stroke-width="2"/>
    <path d="M64.75 214.86V219.14L61.72 217L64.75 214.86ZM55.75 214.86V219.14L52.72 217L55.75 214.86ZM66.75 211L58.25 217L66.75 223V211ZM57.75 211L49.25 217L57.75 223V211Z" fill="#1F1F1F" fill-opacity="0.3"/>
    <path d="M106 211H108V223H106V211ZM109.5 217L118 223V211L109.5 217ZM116 219.14L112.97 217L116 214.86V219.14Z" fill="#1F1F1F" fill-opacity="0.3"/>
    <path d="M164.5 213.64L169.77 217L164.5 220.36V213.64ZM162.5 210V224L173.5 217L162.5 210Z" fill="#1F1F1F" fill-opacity="0.3"/>
    <path d="M225.25 214.86L228.28 217L225.25 219.14V214.86ZM216.25 214.86L219.28 217L216.25 219.14V214.86ZM223.25 211V223L231.75 217L223.25 211ZM214.25 211V223L222.75 217L214.25 211Z" fill="#1F1F1F" fill-opacity="0.3"/>
    <path d="M272 223L280.5 217L272 211V223ZM274 214.86L277.03 217L274 219.14V214.86ZM282 211H284V223H282V211Z" fill="#1F1F1F" fill-opacity="0.3"/>
    <path d="M56 277L61 272L56 267V277Z" fill="#1F1F1F" fill-opacity="0.3"/>
    <path d="M114 267L109 272L114 277V267Z" fill="#1F1F1F" fill-opacity="0.3"/>
    <path d="M163 274L168 269L173 274H163Z" fill="#1F1F1F" fill-opacity="0.3"/>
    <path d="M218 270L223 275L228 270H218Z" fill="#1F1F1F" fill-opacity="0.3"/>
    <path fill-rule="evenodd" clip-rule="evenodd" d="M278 268C279.1 268 280 267.1 280 266C280 264.9 279.1 264 278 264C276.9 264 276 264.9 276 266C276 267.1 276.9 268 278 268ZM278 270C276.9 270 276 270.9 276 272C276 273.1 276.9 274 278 274C279.1 274 280 273.1 280 272C280 270.9 279.1 270 278 270ZM276 278C276 276.9 276.9 276 278 276C279.1 276 280 276.9 280 278C280 279.1 279.1 280 278 280C276.9 280 276 279.1 276 278Z" fill="#1F1F1F" fill-opacity="0.3"/>
    <path d="M58 317.5C53.58 317.5 50 318 50 321.5V331.5C50 332.38 50.39 333.17 51 333.72V335.5C51 336.05 51.45 336.5 52 336.5H53C53.55 336.5 54 336.05 54 335.5V334.5H62V335.5C62 336.05 62.45 336.5 63 336.5H64C64.55 336.5 65 336.05 65 335.5V333.72C65.61 333.17 66 332.38 66 331.5V321.5C66 318 62.42 317.5 58 317.5ZM63.66 320.49H52.34C52.89 319.96 54.31 319.5 58 319.5C61.69 319.5 63.11 319.96 63.66 320.49ZM64 322.49V325.5H52V322.49H64ZM63.66 332.23L63.37 332.5H52.63L52.34 332.23C52.21 332.12 52 331.87 52 331.5V327.5H64V331.5C64 331.87 63.79 332.12 63.66 332.23Z" fill="#1F1F1F" fill-opacity="0.3"/>
    <path d="M54.5 331.5C55.3284 331.5 56 330.828 56 330C56 329.172 55.3284 328.5 54.5 328.5C53.6716 328.5 53 329.172 53 330C53 330.828 53.6716 331.5 54.5 331.5Z" fill="#1F1F1F" fill-opacity="0.3"/>
    <path d="M61.5 331.5C62.3284 331.5 63 330.828 63 330C63 329.172 62.3284 328.5 61.5 328.5C60.6716 328.5 60 329.172 60 330C60 330.828 60.6716 331.5 61.5 331.5Z" fill="#1F1F1F" fill-opacity="0.3"/>
    <path d="M112 317.5C108 317.5 104 318 104 321.5V331C104 332.93 105.57 334.5 107.5 334.5L106 335.5V336.5H118V335.5L116.5 334.5C118.43 334.5 120 332.93 120 331V321.5C120 318 116.42 317.5 112 317.5ZM112 319.5C115.71 319.5 117.13 319.96 117.67 320.5H106.43C107.03 319.98 108.48 319.5 112 319.5ZM106 322.5H111V325.5H106V322.5ZM118 331C118 331.83 117.33 332.5 116.5 332.5H107.5C106.67 332.5 106 331.83 106 331V327.5H118V331ZM118 325.5H113V322.5H118V325.5Z" fill="#1F1F1F" fill-opacity="0.3"/>
    <path d="M108.5 331.5C109.328 331.5 110 330.828 110 330C110 329.172 109.328 328.5 108.5 328.5C107.672 328.5 107 329.172 107 330C107 330.828 107.672 331.5 108.5 331.5Z" fill="#1F1F1F" fill-opacity="0.3"/>
    <path d="M115.5 331.5C116.328 331.5 117 330.828 117 330C117 329.172 116.328 328.5 115.5 328.5C114.672 328.5 114 329.172 114 330C114 330.828 114.672 331.5 115.5 331.5Z" fill="#1F1F1F" fill-opacity="0.3"/>
    <path d="M174.92 320.01C174.72 319.42 174.16 319 173.5 319H162.5C161.84 319 161.29 319.42 161.08 320.01L159 326V334C159 334.55 159.45 335 160 335H161C161.55 335 162 334.55 162 334V333H174V334C174 334.55 174.45 335 175 335H176C176.55 335 177 334.55 177 334V326L174.92 320.01ZM162.85 321H173.14L174.22 324.11H161.77L162.85 321ZM175 331H161V326H175V331Z" fill="#1F1F1F" fill-opacity="0.3"/>
    <path d="M163.5 330C164.328 330 165 329.328 165 328.5C165 327.672 164.328 327 163.5 327C162.672 327 162 327.672 162 328.5C162 329.328 162.672 330 163.5 330Z" fill="#1F1F1F" fill-opacity="0.3"/>
    <path d="M172.5 330C173.328 330 174 329.328 174 328.5C174 327.672 173.328 327 172.5 327C171.672 327 171 327.672 171 328.5C171 329.328 171.672 330 172.5 330Z" fill="#1F1F1F" fill-opacity="0.3"/>
    <path fill-rule="evenodd" clip-rule="evenodd" d="M225.76 328.27L231.49 334L230 335.49L224.27 329.76C223.2 330.53 221.91 331 220.5 331C216.91 331 214 328.09 214 324.5C214 320.91 216.91 318 220.5 318C224.09 318 227 320.91 227 324.5C227 325.91 226.53 327.2 225.76 328.27ZM220.5 320C218.01 320 216 322.01 216 324.5C216 326.99 218.01 329 220.5 329C222.99 329 225 326.99 225 324.5C225 322.01 222.99 320 220.5 320Z" fill="#1F1F1F" fill-opacity="0.3"/>
    <path fill-rule="evenodd" clip-rule="evenodd" d="M284.92 321.01C284.72 320.42 284.16 320 283.5 320H281V318H275V320H272.5C271.84 320 271.29 320.42 271.08 321.01L269 327V335C269 335.55 269.45 336 270 336H271C271.55 336 272 335.55 272 335V334H284V335C284 335.55 284.45 336 285 336H286C286.55 336 287 335.55 287 335V327L284.92 321.01ZM272.85 322H283.14L284.18 325H271.81L272.85 322ZM284 332H285V327.34L284.89 327H271.12L271 327.34V332H272H284ZM273.5 331C274.328 331 275 330.328 275 329.5C275 328.672 274.328 328 273.5 328C272.672 328 272 328.672 272 329.5C272 330.328 272.672 331 273.5 331ZM284 329.5C284 330.328 283.328 331 282.5 331C281.672 331 281 330.328 281 329.5C281 328.672 281.672 328 282.5 328C283.328 328 284 328.672 284 329.5Z" fill="#1F1F1F" fill-opacity="0.3"/>
    <path d="M119 373H105C103.9 373 103 373.9 103 375V389C103 390.1 103.9 391 105 391H119C120.1 391 121 390.1 121 389V375C121 373.9 120.1 373 119 373ZM119 389H105V375H119V389ZM117.99 379L116.58 377.58L109.99 384.17L107.41 381.6L105.99 383.01L109.99 387L117.99 379Z" fill="#1F1F1F" fill-opacity="0.3"/>
    <path fill-rule="evenodd" clip-rule="evenodd" d="M51 373H65C66.1 373 67 373.9 67 375V389C67 390.1 66.1 391 65 391H51C49.9 391 49 390.1 49 389V375C49 373.9 49.9 373 51 373ZM62.6 377.6L64 379L56 387L52 383L53.4 381.6L56 384.2L62.6 377.6Z" fill="#1F1F1F" fill-opacity="0.3"/>
    <path d="M175 375V389H161V375H175ZM175 373H161C159.9 373 159 373.9 159 375V389C159 390.1 159.9 391 161 391H175C176.1 391 177 390.1 177 389V375C177 373.9 176.1 373 175 373Z" fill="#1F1F1F" fill-opacity="0.3"/>
    <path d="M230 373H216C214.9 373 214 373.9 214 375V389C214 390.1 214.9 391 216 391H230C231.1 391 232 390.1 232 389V375C232 373.9 231.1 373 230 373ZM230 389H216V375H230V389ZM218 381H228V383H218V381Z" fill="#1F1F1F" fill-opacity="0.3"/>
    <path d="M286 383H279V390H277V383H270V381H277V374H279V381H286V383Z" fill="#1F1F1F" fill-opacity="0.3"/>
    <path d="M66 429H50C48.9 429 48.01 429.9 48.01 431L48 443C48 444.1 48.9 445 50 445H66C67.1 445 68 444.1 68 443V431C68 429.9 67.1 429 66 429ZM66 443H50V433L58 438L66 433V443ZM58 436L50 431H66L58 436Z" fill="#1F1F1F" fill-opacity="0.3"/>
    <path fill-rule="evenodd" clip-rule="evenodd" d="M107 428H117C118.1 428 119 428.9 119 430V446L112 443L105 446V430C105 428.9 105.9 428 107 428ZM112 440.82L117 443V430H107V443L112 440.82Z" fill="#1F1F1F" fill-opacity="0.3"/>
    <path d="M173 428H163C161.9 428 161 428.9 161 430V446L168 443L175 446V430C175 428.9 174.1 428 173 428Z" fill="#1F1F1F" fill-opacity="0.3"/>
    <path fill-rule="evenodd" clip-rule="evenodd" d="M223 427C217.48 427 213 431.48 213 437C213 442.52 217.48 447 223 447C228.52 447 233 442.52 233 437C233 431.48 228.52 427 223 427ZM229.36 441.83C227.93 440.09 224.46 439.5 223 439.5C221.54 439.5 218.07 440.09 216.64 441.83C215.62 440.49 215 438.82 215 437C215 432.59 218.59 429 223 429C227.41 429 231 432.59 231 437C231 438.82 230.38 440.49 229.36 441.83ZM219.5 434.5C219.5 432.56 221.06 431 223 431C224.94 431 226.5 432.56 226.5 434.5C226.5 436.44 224.94 438 223 438C221.06 438 219.5 436.44 219.5 434.5Z" fill="#1F1F1F" fill-opacity="0.3"/>
    <path fill-rule="evenodd" clip-rule="evenodd" d="M278 429C275.79 429 274 430.79 274 433C274 435.21 275.79 437 278 437C280.21 437 282 435.21 282 433C282 430.79 280.21 429 278 429ZM280 433C280 431.9 279.1 431 278 431C276.9 431 276 431.9 276 433C276 434.1 276.9 435 278 435C279.1 435 280 434.1 280 433ZM284 442C283.8 441.29 280.7 440 278 440C275.3 440 272.2 441.29 272 442.01V443H284V442ZM270 442C270 439.34 275.33 438 278 438C280.67 438 286 439.34 286 442V445H270V442Z" fill="#1F1F1F" fill-opacity="0.3"/>
    <path d="M58 537C52.48 537 48 541.48 48 547C48 552.52 52.48 557 58 557C63.52 557 68 552.52 68 547C68 541.48 63.52 537 58 537ZM58 555C53.58 555 50 551.42 50 547C50 542.58 53.58 539 58 539C62.42 539 66 542.58 66 547C66 551.42 62.42 555 58 555Z" fill="#1F1F1F" fill-opacity="0.3"/>
    <path d="M58 552C60.7614 552 63 549.761 63 547C63 544.239 60.7614 542 58 542C55.2386 542 53 544.239 53 547C53 549.761 55.2386 552 58 552Z" fill="#1F1F1F" fill-opacity="0.3"/>
    <path d="M112 537C106.48 537 102 541.48 102 547C102 552.52 106.48 557 112 557C117.52 557 122 552.52 122 547C122 541.48 117.52 537 112 537ZM112 555C107.58 555 104 551.42 104 547C104 542.58 107.58 539 112 539C116.42 539 120 542.58 120 547C120 551.42 116.42 555 112 555Z" fill="#1F1F1F" fill-opacity="0.3"/>
    <path d="M168 552.77L174.18 556.5L172.54 549.47L178 544.74L170.81 544.13L168 537.5L165.19 544.13L158 544.74L163.46 549.47L161.82 556.5L168 552.77Z" fill="#1F1F1F" fill-opacity="0.3"/>
    <path d="M233 544.74L225.81 544.12L223 537.5L220.19 544.13L213 544.74L218.46 549.47L216.82 556.5L223 552.77L229.18 556.5L227.55 549.47L233 544.74ZM223 550.9L219.24 553.17L220.24 548.89L216.92 546.01L221.3 545.63L223 541.6L224.71 545.64L229.09 546.02L225.77 548.9L226.77 553.18L223 550.9Z" fill="#1F1F1F" fill-opacity="0.3"/>
    <path d="M275.17 541L277.17 543H286V553H270V541H275.17ZM276 539H270C268.9 539 268.01 539.9 268.01 541L268 553C268 554.1 268.9 555 270 555H286C287.1 555 288 554.1 288 553V543C288 541.9 287.1 541 286 541H278L276 539Z" fill="#1F1F1F" fill-opacity="0.3"/>
    <path d="M61.7049 597.41L60.2949 596L54.2949 602L60.2949 608L61.7049 606.59L57.1249 602L61.7049 597.41Z" fill="#1F1F1F" fill-opacity="0.3"/>
    <path d="M109.705 596L108.295 597.41L112.875 602L108.295 606.59L109.705 608L115.705 602L109.705 596Z" fill="#1F1F1F" fill-opacity="0.3"/>
    <path d="M174 605V608H162V605H160V608C160 609.1 160.9 610 162 610H174C175.1 610 176 609.1 176 608V605H174ZM163 599L164.41 600.41L167 597.83V606H169V597.83L171.59 600.41L173 599L168 594L163 599Z" fill="#1F1F1F" fill-opacity="0.3"/>
    <path d="M229 605V608H217V605H215V608C215 609.1 215.9 610 217 610H229C230.1 610 231 609.1 231 608V605H229ZM228 601L226.59 599.59L224 602.17V594H222V602.17L219.41 599.59L218 601L223 606L228 601Z" fill="#1F1F1F" fill-opacity="0.3"/>
    <path fill-rule="evenodd" clip-rule="evenodd" d="M278 596H286C287.1 596 288 596.9 288 598V608C288 609.1 287.1 610 286 610H270C268.9 610 268 609.1 268 608L268.01 596C268.01 594.9 268.9 594 270 594H276L278 596Z" fill="#1F1F1F" fill-opacity="0.3"/>
    <path d="M61.5 651V661.5C61.5 663.71 59.71 665.5 57.5 665.5C55.29 665.5 53.5 663.71 53.5 661.5V651C53.5 649.62 54.62 648.5 56 648.5C57.38 648.5 58.5 649.62 58.5 651V660.5C58.5 661.05 58.05 661.5 57.5 661.5C56.95 661.5 56.5 661.05 56.5 660.5V651H55V660.5C55 661.88 56.12 663 57.5 663C58.88 663 60 661.88 60 660.5V651C60 648.79 58.21 647 56 647C53.79 647 52 648.79 52 651V661.5C52 664.54 54.46 667 57.5 667C60.54 667 63 664.54 63 661.5V651H61.5Z" fill="#1F1F1F" fill-opacity="0.3"/>
    <path fill-rule="evenodd" clip-rule="evenodd" d="M119 649H118V647H116V649H108V647H106V649H105C103.89 649 103 649.9 103 651V665C103 666.1 103.89 667 105 667H119C120.1 667 121 666.1 121 665V651C121 649.9 120.1 649 119 649ZM119 665H105V654H119V665ZM106.5 658C106.5 656.62 107.62 655.5 109 655.5C110.38 655.5 111.5 656.62 111.5 658C111.5 659.38 110.38 660.5 109 660.5C107.62 660.5 106.5 659.38 106.5 658Z" fill="#1F1F1F" fill-opacity="0.3"/>
    <path fill-rule="evenodd" clip-rule="evenodd" d="M175.06 648.59L176.41 649.94C177.2 650.72 177.2 651.99 176.41 652.77L163.18 666H159V661.82L169.4 651.41L172.23 648.59C173.01 647.81 174.28 647.81 175.06 648.59ZM161 664L162.41 664.06L172.23 654.23L170.82 652.82L161 662.64V664Z" fill="#1F1F1F" fill-opacity="0.3"/>
    <path fill-rule="evenodd" clip-rule="evenodd" d="M226.97 661.81C227.5 661.31 228.21 661 229 661C230.66 661 232 662.34 232 664C232 665.66 230.66 667 229 667C227.34 667 226 665.66 226 664C226 663.76 226.04 663.53 226.09 663.31L219.04 659.19C218.5 659.69 217.79 660 217 660C215.34 660 214 658.66 214 657C214 655.34 215.34 654 217 654C217.79 654 218.5 654.31 219.04 654.81L226.09 650.7C226.04 650.48 226 650.24 226 650C226 648.34 227.34 647 229 647C230.66 647 232 648.34 232 650C232 651.66 230.66 653 229 653C228.21 653 227.49 652.69 226.96 652.19L219.91 656.3C219.96 656.53 220 656.76 220 657C220 657.24 219.96 657.47 219.91 657.7L226.97 661.81ZM230 650C230 649.45 229.55 649 229 649C228.45 649 228 649.45 228 650C228 650.55 228.45 651 229 651C229.55 651 230 650.55 230 650ZM217 658C216.45 658 216 657.55 216 657C216 656.45 216.45 656 217 656C217.55 656 218 656.45 218 657C218 657.55 217.55 658 217 658ZM228 664C228 664.55 228.45 665 229 665C229.55 665 230 664.55 230 664C230 663.45 229.55 663 229 663C228.45 663 228 663.45 228 664Z" fill="#1F1F1F" fill-opacity="0.3"/>
    <path fill-rule="evenodd" clip-rule="evenodd" d="M278 647C272.47 647 268 651.47 268 657C268 662.53 272.47 667 278 667C283.53 667 288 662.53 288 657C288 651.47 283.53 647 278 647ZM278 665C273.59 665 270 661.41 270 657C270 652.59 273.59 649 278 649C282.41 649 286 652.59 286 657C286 661.41 282.41 665 278 665ZM278 655.59L281.59 652L283 653.41L279.41 657L283 660.59L281.59 662L278 658.41L274.41 662L273 660.59L276.59 657L273 653.41L274.41 652L278 655.59Z" fill="#1F1F1F" fill-opacity="0.3"/>
    <path fill-rule="evenodd" clip-rule="evenodd" d="M55 703C49.48 703 45 707.48 45 713C45 718.52 49.48 723 55 723C60.52 723 65 718.52 65 713C65 707.48 60.52 703 55 703ZM54 718V716H56V718H54ZM54 708V714H56V708H54Z" fill="#1F1F1F" fill-opacity="0.3"/>
    <path fill-rule="evenodd" clip-rule="evenodd" d="M114.293 732.235C114.194 732.935 113.579 733.491 112.846 733.491H109.178C108.445 733.491 107.83 732.935 107.741 732.183L107.473 730.237C107.206 730.093 106.948 729.939 106.69 729.764L104.906 730.505C104.212 730.773 103.449 730.474 103.112 729.836L101.298 726.572C100.951 725.893 101.1 725.09 101.655 724.637L103.172 723.412C103.162 723.257 103.152 723.103 103.152 722.938C103.152 722.784 103.162 722.619 103.172 722.465L101.665 721.24C101.08 720.776 100.932 719.943 101.298 719.304L103.132 716.02C103.469 715.382 104.232 715.094 104.906 715.372L106.7 716.123C106.958 715.948 107.216 715.794 107.473 715.65L107.741 713.683C107.83 712.963 108.445 712.396 109.168 712.396H112.836C113.569 712.396 114.184 712.952 114.273 713.704L114.54 715.65C114.808 715.794 115.066 715.948 115.323 716.123L117.108 715.382C117.811 715.114 118.575 715.413 118.912 716.051L120.735 719.325C121.092 720.004 120.934 720.807 120.378 721.26L118.872 722.485C118.882 722.64 118.892 722.794 118.892 722.959C118.892 723.124 118.882 723.278 118.872 723.433L120.378 724.658C120.934 725.121 121.092 725.924 120.745 726.572L118.902 729.887C118.565 730.526 117.801 730.814 117.117 730.536L115.333 729.795C115.076 729.97 114.818 730.124 114.56 730.268L114.293 732.235ZM109.644 731.432H112.38L112.746 728.806L113.272 728.58C113.708 728.395 114.144 728.127 114.6 727.777L115.046 727.427L117.405 728.415L118.773 725.944L116.761 724.318L116.83 723.741L116.833 723.714C116.862 723.456 116.89 723.207 116.89 722.938C116.89 722.66 116.86 722.393 116.83 722.135L116.761 721.559L118.773 719.932L117.395 717.461L115.026 718.45L114.58 718.089C114.164 717.76 113.718 717.492 113.262 717.297L112.746 717.07L112.38 714.445H109.644L109.277 717.07L108.752 717.286C108.316 717.482 107.88 717.739 107.424 718.1L106.978 718.439L104.619 717.461L103.241 719.922L105.253 721.549L105.184 722.125C105.154 722.393 105.124 722.671 105.124 722.938C105.124 723.206 105.144 723.484 105.184 723.741L105.253 724.318L103.241 725.944L104.609 728.415L106.978 727.427L107.424 727.787C107.85 728.127 108.276 728.384 108.742 728.58L109.267 728.806L109.644 731.432ZM114.481 722.938C114.481 724.928 112.928 726.542 111.012 726.542C109.096 726.542 107.543 724.928 107.543 722.938C107.543 720.948 109.096 719.335 111.012 719.335C112.928 719.335 114.481 720.948 114.481 722.938Z" fill="#1F1F1F" fill-opacity="0.3"/>
    <path d="M173.882 723.947C173.922 723.618 173.952 723.288 173.952 722.938C173.952 722.588 173.922 722.259 173.882 721.929L175.974 720.231C176.162 720.076 176.211 719.798 176.093 719.572L174.11 716.01C173.991 715.783 173.724 715.701 173.506 715.783L171.038 716.813C170.522 716.401 169.967 716.061 169.362 715.804L168.986 713.076C168.956 712.829 168.748 712.643 168.5 712.643H164.535C164.288 712.643 164.079 712.829 164.05 713.076L163.673 715.804C163.068 716.061 162.513 716.411 161.998 716.813L159.53 715.783C159.302 715.691 159.044 715.783 158.925 716.01L156.943 719.572C156.814 719.798 156.874 720.076 157.062 720.231L159.153 721.929C159.114 722.259 159.084 722.599 159.084 722.938C159.084 723.278 159.114 723.618 159.153 723.947L157.062 725.646C156.874 725.8 156.824 726.078 156.943 726.305L158.925 729.867C159.044 730.093 159.312 730.176 159.53 730.093L161.998 729.064C162.513 729.476 163.068 729.815 163.673 730.073L164.05 732.801C164.079 733.048 164.288 733.233 164.535 733.233H168.5C168.748 733.233 168.956 733.048 168.986 732.801L169.362 730.073C169.967 729.815 170.522 729.465 171.038 729.064L173.506 730.093C173.734 730.186 173.991 730.093 174.11 729.867L176.093 726.305C176.211 726.078 176.162 725.8 175.974 725.646L173.882 723.947ZM166.518 726.542C164.605 726.542 163.049 724.925 163.049 722.938C163.049 720.951 164.605 719.335 166.518 719.335C168.431 719.335 169.987 720.951 169.987 722.938C169.987 724.925 168.431 726.542 166.518 726.542Z" fill="#1F1F1F" fill-opacity="0.3"/>
    </svg>
    