<svg width="350" height="340" viewBox="0 0 350 340" fill="none" xmlns="http://www.w3.org/2000/svg">
    <path d="M23 70C23 31.3401 54.3401 0 93 0H100C138.66 0 170 31.3401 170 70V168C170 155.639 159.979 145.618 147.618 145.618H92.825C54.2617 145.618 23 114.356 23 75.7927V70Z" fill="#9A82DB"/>
    <path d="M181 269.827C181 308.487 212.34 339.827 251 339.827H254.5H258C296.66 339.827 328 308.487 328 269.827V265C328 226.34 296.66 194.546 258 194.546H254.5H199.546C189.303 194.546 181 186.242 181 176V269.827Z" fill="#9A82DB"/>
    <path d="M147 251.281C147 289.941 115.66 321.281 77 321.281H70C31.3401 321.281 0 289.941 0 251.281V246.454C0 207.794 31.3401 176 70 176H170.5C157.521 176 147 186.521 147 199.5V246.454V251.281Z" fill="#D0BCFF"/>
    <path d="M202.5 92C202.5 53.3401 233.84 22 272.5 22H279.5C318.16 22 349.5 53.3401 349.5 92V97C349.5 135.66 318.16 167.618 279.5 167.618H180C192.426 167.618 202.5 157.544 202.5 145.118V97V92Z" fill="#D0BCFF"/>
    </svg>
    